<?xml version="1.0" standalone="no"?>
<!DOCTYPE svg PUBLIC "-//W3C//DTD SVG 20010904//EN"
 "http://www.w3.org/TR/2001/REC-SVG-20010904/DTD/svg10.dtd">
<svg version="1.0" xmlns="http://www.w3.org/2000/svg"
 width="933.000000pt" height="468.000000pt" viewBox="0 0 933.000000 468.000000"
 preserveAspectRatio="xMidYMid meet">

<g transform="translate(0.000000,468.000000) scale(0.100000,-0.100000)"
fill="#000000" stroke="none">
<path d="M8177 4329 c-31 -50 -708 -1220 -713 -1234 -5 -13 82 -15 725 -15
554 0 731 3 731 12 0 10 -703 1231 -721 1252 -4 4 -14 -2 -22 -15z m284 -672
l256 -442 -515 -3 c-283 -1 -517 0 -519 2 -2 2 112 204 254 449 142 245 260
443 263 441 2 -3 119 -204 261 -447z"/>
<path d="M3315 4305 c-114 -24 -239 -88 -343 -174 -105 -86 -211 -260 -248
-406 -21 -85 -24 -263 -5 -350 66 -306 309 -547 613 -609 381 -78 764 136 898
503 112 307 19 656 -232 869 -83 69 -216 137 -319 162 -98 23 -270 26 -364 5z
m339 -125 c330 -84 552 -420 493 -745 -20 -109 -50 -182 -108 -270 -65 -97
-144 -166 -254 -221 -197 -98 -390 -97 -593 2 -155 76 -283 222 -333 384 -78
251 -19 489 166 676 129 130 276 191 461 193 60 1 117 -6 168 -19z"/>
<path d="M5250 3545 l0 -595 595 0 595 0 0 595 0 595 -595 0 -595 0 0 -595z
m1070 -5 l0 -480 -480 0 -480 0 0 473 c0 261 3 477 7 480 3 4 219 7 480 7
l473 0 0 -480z"/>
<path d="M575 4090 l-39 -40 252 -253 c138 -139 252 -257 252 -262 0 -5 -114
-123 -252 -262 l-253 -253 43 -42 42 -43 258 258 257 257 257 -257 258 -258
42 43 43 42 -253 253 c-138 139 -252 257 -252 262 0 5 114 123 252 262 l253
253 -43 42 -42 43 -253 -253 c-139 -138 -256 -252 -262 -252 -5 0 -121 111
-257 248 -137 136 -252 248 -256 250 -4 1 -25 -16 -47 -38z"/>
<path d="M960 2265 c-370 -58 -687 -293 -850 -629 -78 -161 -101 -259 -107
-461 -4 -144 -2 -185 15 -265 90 -436 398 -760 839 -882 68 -19 104 -22 278
-22 189 -1 206 1 300 27 416 115 724 441 822 870 25 111 23 365 -5 484 -136
590 -698 971 -1292 878z m-75 -775 l250 -250 250 250 c137 137 256 250 265
250 15 0 90 -68 90 -83 0 -5 -113 -124 -250 -265 l-250 -257 250 -250 c137
-138 250 -254 250 -260 0 -12 -81 -95 -94 -95 -5 0 -121 114 -257 253 l-247
252 -254 -252 c-139 -139 -257 -253 -263 -253 -13 0 -95 82 -95 95 0 5 113
123 250 260 l251 251 -251 256 c-137 141 -250 260 -250 264 0 15 74 84 89 84
9 0 128 -113 266 -250z"/>
<path d="M3308 2264 c-416 -64 -767 -362 -902 -765 -84 -252 -72 -558 33 -810
103 -248 341 -487 592 -596 190 -82 436 -113 639 -79 853 140 1246 1131 721
1820 -250 329 -668 495 -1083 430z m350 -350 c299 -61 539 -296 607 -594 24
-107 22 -281 -4 -385 -71 -275 -285 -492 -558 -567 -111 -30 -315 -30 -426 0
-272 74 -488 294 -557 566 -25 101 -27 285 -4 389 66 293 306 528 604 592 89
18 245 18 338 -1z"/>
<path d="M3424 1789 c-313 -37 -555 -284 -589 -601 -26 -247 132 -520 368
-637 190 -94 381 -94 575 0 67 32 102 58 167 122 91 91 131 155 169 269 67
200 28 415 -108 595 -133 176 -367 277 -582 252z"/>
<path d="M5670 2265 c-480 -76 -856 -441 -945 -920 -26 -135 -16 -376 19 -505
88 -315 303 -577 591 -720 627 -310 1384 5 1594 665 40 124 54 220 54 355 0
252 -75 480 -224 680 -250 336 -675 510 -1089 445z m760 -1125 l0 -600 -600 0
-600 0 0 600 0 600 600 0 600 0 0 -600z"/>
<path d="M5360 1135 l0 -475 475 0 475 0 0 475 0 475 -475 0 -475 0 0 -475z"/>
<path d="M8025 2265 c-265 -42 -470 -148 -653 -339 -156 -163 -250 -344 -297
-570 -21 -104 -21 -323 0 -432 66 -345 297 -650 613 -808 259 -130 590 -151
874 -56 334 112 600 378 714 714 77 226 73 537 -12 762 -187 503 -715 813
-1239 729z m538 -925 c197 -341 361 -629 364 -640 5 -20 4 -20 -731 -20 -682
0 -736 1 -736 17 0 23 720 1263 734 1263 6 -1 172 -279 369 -620z"/>
<path d="M7945 1257 c-137 -237 -251 -434 -253 -439 -2 -4 226 -8 506 -8 l510
0 -250 433 c-138 237 -253 435 -257 439 -3 4 -118 -187 -256 -425z"/>
</g>
</svg>
